<mxfile host="app.diagrams.net" modified="2021-11-23T04:02:07.575Z" agent="5.0 (Windows NT 10.0; Win64; x64) AppleWebKit/537.36 (KHTML, like Gecko) Chrome/95.0.4638.69 Safari/537.36 OPR/81.0.4196.52" etag="rvIbq-LS7SI_pfIIdIiT" version="15.8.3" type="github">
  <diagram name="Page-1" id="e7e014a7-5840-1c2e-5031-d8a46d1fe8dd">
    <mxGraphModel dx="1173" dy="645" grid="1" gridSize="10" guides="1" tooltips="1" connect="1" arrows="1" fold="1" page="1" pageScale="1" pageWidth="1169" pageHeight="826" background="none" math="0" shadow="0">
      <root>
        <mxCell id="0" />
        <mxCell id="1" parent="0" />
        <mxCell id="2" value="Customer Validation Procedure" style="swimlane;whiteSpace=wrap" parent="1" vertex="1">
          <mxGeometry x="230" y="200" width="521" height="716" as="geometry" />
        </mxCell>
        <mxCell id="5" value="" style="ellipse;shape=startState;fillColor=#000000;strokeColor=#ff0000;" parent="2" vertex="1">
          <mxGeometry x="269.25" y="52.75" width="30" height="30" as="geometry" />
        </mxCell>
        <mxCell id="RaReiFTQw6tafP7txSm7-63" value="Wrong PIN Try Again" style="endArrow=classic;html=1;rounded=0;exitX=0;exitY=0.5;exitDx=0;exitDy=0;entryX=0.5;entryY=0;entryDx=0;entryDy=0;" edge="1" parent="2">
          <mxGeometry width="50" height="50" relative="1" as="geometry">
            <mxPoint x="394" y="348.125" as="sourcePoint" />
            <mxPoint x="429" y="320" as="targetPoint" />
            <Array as="points">
              <mxPoint x="392.5" y="310" />
            </Array>
          </mxGeometry>
        </mxCell>
        <mxCell id="6" value="" style="edgeStyle=elbowEdgeStyle;elbow=horizontal;verticalAlign=bottom;endArrow=open;endSize=8;strokeColor=#FF0000;endFill=1;rounded=0;entryX=0.5;entryY=0;entryDx=0;entryDy=0;" parent="2" source="5" target="RaReiFTQw6tafP7txSm7-47" edge="1">
          <mxGeometry x="100" y="40" as="geometry">
            <mxPoint x="284" y="112" as="targetPoint" />
          </mxGeometry>
        </mxCell>
        <mxCell id="11" value="" style="endArrow=open;strokeColor=#FF0000;endFill=1;rounded=0;entryX=0.475;entryY=0.101;entryDx=0;entryDy=0;entryPerimeter=0;exitX=0.847;exitY=0.503;exitDx=0;exitDy=0;exitPerimeter=0;" parent="2" source="RaReiFTQw6tafP7txSm7-43" target="RaReiFTQw6tafP7txSm7-41" edge="1">
          <mxGeometry relative="1" as="geometry">
            <mxPoint x="275.4660381644708" y="612" as="sourcePoint" />
            <mxPoint x="282.6875" y="512" as="targetPoint" />
          </mxGeometry>
        </mxCell>
        <mxCell id="RaReiFTQw6tafP7txSm7-41" value="" style="ellipse;shape=startState;fillColor=#000000;strokeColor=#ff0000;" vertex="1" parent="2">
          <mxGeometry x="269.25" y="480" width="30" height="30" as="geometry" />
        </mxCell>
        <mxCell id="RaReiFTQw6tafP7txSm7-42" value="" style="html=1;points=[];perimeter=orthogonalPerimeter;fillColor=#000000;strokeColor=none;rotation=90;" vertex="1" parent="2">
          <mxGeometry x="281.75" y="13.75" width="5" height="372.5" as="geometry" />
        </mxCell>
        <mxCell id="9" value="" style="endArrow=open;strokeColor=#FF0000;endFill=1;rounded=0;entryX=-0.34;entryY=0.501;entryDx=0;entryDy=0;entryPerimeter=0;exitX=0.5;exitY=1;exitDx=0;exitDy=0;" parent="2" source="RaReiFTQw6tafP7txSm7-47" target="RaReiFTQw6tafP7txSm7-42" edge="1">
          <mxGeometry relative="1" as="geometry">
            <mxPoint x="282.25" y="162" as="sourcePoint" />
          </mxGeometry>
        </mxCell>
        <mxCell id="RaReiFTQw6tafP7txSm7-43" value="" style="html=1;points=[];perimeter=orthogonalPerimeter;fillColor=#000000;strokeColor=none;rotation=90;" vertex="1" parent="2">
          <mxGeometry x="281.75" y="233.5" width="5" height="378.5" as="geometry" />
        </mxCell>
        <mxCell id="RaReiFTQw6tafP7txSm7-44" value="Use ATM Card To Validate Customer" style="rounded=1;whiteSpace=wrap;html=1;" vertex="1" parent="2">
          <mxGeometry x="100" y="249" width="93" height="42" as="geometry" />
        </mxCell>
        <mxCell id="RaReiFTQw6tafP7txSm7-46" value="Use QR code to Validate Customer" style="rounded=1;whiteSpace=wrap;html=1;" vertex="1" parent="2">
          <mxGeometry x="381" y="249" width="93" height="42" as="geometry" />
        </mxCell>
        <mxCell id="RaReiFTQw6tafP7txSm7-45" value="Use NFC To Validate Customer" style="rounded=1;whiteSpace=wrap;html=1;" vertex="1" parent="2">
          <mxGeometry x="237.75" y="249" width="93" height="42" as="geometry" />
        </mxCell>
        <mxCell id="RaReiFTQw6tafP7txSm7-47" value="Idle" style="rounded=1;whiteSpace=wrap;html=1;" vertex="1" parent="2">
          <mxGeometry x="224.25" y="112" width="120" height="60" as="geometry" />
        </mxCell>
        <mxCell id="RaReiFTQw6tafP7txSm7-48" value="" style="endArrow=open;strokeColor=#FF0000;endFill=1;rounded=0;entryX=0.5;entryY=0;entryDx=0;entryDy=0;exitX=0.871;exitY=0.495;exitDx=0;exitDy=0;exitPerimeter=0;" edge="1" parent="2" source="RaReiFTQw6tafP7txSm7-42" target="RaReiFTQw6tafP7txSm7-44">
          <mxGeometry relative="1" as="geometry">
            <mxPoint x="294.25" y="182" as="sourcePoint" />
            <mxPoint x="293.87750000000005" y="205.80000000000007" as="targetPoint" />
          </mxGeometry>
        </mxCell>
        <mxCell id="RaReiFTQw6tafP7txSm7-49" value="" style="endArrow=open;strokeColor=#FF0000;endFill=1;rounded=0;entryX=0.5;entryY=0;entryDx=0;entryDy=0;exitX=1.511;exitY=0.496;exitDx=0;exitDy=0;exitPerimeter=0;" edge="1" parent="2" source="RaReiFTQw6tafP7txSm7-42" target="RaReiFTQw6tafP7txSm7-45">
          <mxGeometry relative="1" as="geometry">
            <mxPoint x="304.25" y="192" as="sourcePoint" />
            <mxPoint x="303.87750000000005" y="215.80000000000007" as="targetPoint" />
          </mxGeometry>
        </mxCell>
        <mxCell id="RaReiFTQw6tafP7txSm7-50" value="" style="endArrow=open;strokeColor=#FF0000;endFill=1;rounded=0;entryX=0.5;entryY=0;entryDx=0;entryDy=0;exitX=1.146;exitY=0.498;exitDx=0;exitDy=0;exitPerimeter=0;" edge="1" parent="2" source="RaReiFTQw6tafP7txSm7-42" target="RaReiFTQw6tafP7txSm7-46">
          <mxGeometry relative="1" as="geometry">
            <mxPoint x="314.25" y="202" as="sourcePoint" />
            <mxPoint x="313.87750000000005" y="225.80000000000007" as="targetPoint" />
          </mxGeometry>
        </mxCell>
        <mxCell id="RaReiFTQw6tafP7txSm7-51" value="Correct PIN&#xa;" style="endArrow=open;strokeColor=#FF0000;endFill=1;rounded=0;entryX=-0.086;entryY=0.496;entryDx=0;entryDy=0;exitX=0.5;exitY=1;exitDx=0;exitDy=0;entryPerimeter=0;startArrow=none;" edge="1" parent="2" source="RaReiFTQw6tafP7txSm7-56" target="RaReiFTQw6tafP7txSm7-43">
          <mxGeometry relative="1" as="geometry">
            <mxPoint x="296.1125000000002" y="211.85500000000013" as="sourcePoint" />
            <mxPoint x="156.5" y="259" as="targetPoint" />
          </mxGeometry>
        </mxCell>
        <mxCell id="RaReiFTQw6tafP7txSm7-52" value="Correct PIN" style="endArrow=open;strokeColor=#FF0000;endFill=1;rounded=0;entryX=0.024;entryY=0.502;entryDx=0;entryDy=0;exitX=0.5;exitY=1;exitDx=0;exitDy=0;entryPerimeter=0;startArrow=none;" edge="1" parent="2" source="RaReiFTQw6tafP7txSm7-57" target="RaReiFTQw6tafP7txSm7-43">
          <mxGeometry relative="1" as="geometry">
            <mxPoint x="306.1125000000002" y="221.85500000000013" as="sourcePoint" />
            <mxPoint x="166.5" y="269" as="targetPoint" />
          </mxGeometry>
        </mxCell>
        <mxCell id="RaReiFTQw6tafP7txSm7-53" value="Correct PIN" style="endArrow=open;strokeColor=#FF0000;endFill=1;rounded=0;exitX=0.5;exitY=1;exitDx=0;exitDy=0;entryX=1.186;entryY=0.496;entryDx=0;entryDy=0;entryPerimeter=0;startArrow=none;" edge="1" parent="2" source="RaReiFTQw6tafP7txSm7-58" target="RaReiFTQw6tafP7txSm7-43">
          <mxGeometry relative="1" as="geometry">
            <mxPoint x="316.1125000000002" y="231.85500000000013" as="sourcePoint" />
            <mxPoint x="270" y="306" as="targetPoint" />
          </mxGeometry>
        </mxCell>
        <mxCell id="RaReiFTQw6tafP7txSm7-57" value="" style="rhombus;whiteSpace=wrap;html=1;" vertex="1" parent="2">
          <mxGeometry x="249.25" y="320" width="70" height="56.25" as="geometry" />
        </mxCell>
        <mxCell id="RaReiFTQw6tafP7txSm7-59" value="" style="endArrow=none;strokeColor=#FF0000;endFill=1;rounded=0;entryX=0.5;entryY=0;entryDx=0;entryDy=0;exitX=0.5;exitY=1;exitDx=0;exitDy=0;" edge="1" parent="2" source="RaReiFTQw6tafP7txSm7-45" target="RaReiFTQw6tafP7txSm7-57">
          <mxGeometry relative="1" as="geometry">
            <mxPoint x="514.25" y="491" as="sourcePoint" />
            <mxPoint x="513.4930000000002" y="620.3699999999999" as="targetPoint" />
          </mxGeometry>
        </mxCell>
        <mxCell id="RaReiFTQw6tafP7txSm7-56" value="" style="rhombus;whiteSpace=wrap;html=1;" vertex="1" parent="2">
          <mxGeometry x="111.5" y="320" width="70" height="56.25" as="geometry" />
        </mxCell>
        <mxCell id="RaReiFTQw6tafP7txSm7-60" value="" style="endArrow=none;strokeColor=#FF0000;endFill=1;rounded=0;entryX=0.5;entryY=0;entryDx=0;entryDy=0;exitX=0.5;exitY=1;exitDx=0;exitDy=0;" edge="1" parent="2" source="RaReiFTQw6tafP7txSm7-44" target="RaReiFTQw6tafP7txSm7-56">
          <mxGeometry relative="1" as="geometry">
            <mxPoint x="376.5" y="491" as="sourcePoint" />
            <mxPoint x="515.7639999999999" y="619.8199999999999" as="targetPoint" />
          </mxGeometry>
        </mxCell>
        <mxCell id="RaReiFTQw6tafP7txSm7-58" value="" style="rhombus;whiteSpace=wrap;html=1;" vertex="1" parent="2">
          <mxGeometry x="392.5" y="320" width="70" height="56.25" as="geometry" />
        </mxCell>
        <mxCell id="RaReiFTQw6tafP7txSm7-61" value="" style="endArrow=none;strokeColor=#FF0000;endFill=1;rounded=0;exitX=0.5;exitY=1;exitDx=0;exitDy=0;entryX=0.5;entryY=0;entryDx=0;entryDy=0;" edge="1" parent="2" source="RaReiFTQw6tafP7txSm7-46" target="RaReiFTQw6tafP7txSm7-58">
          <mxGeometry relative="1" as="geometry">
            <mxPoint x="657.5" y="491" as="sourcePoint" />
            <mxPoint x="515.7639999999999" y="626.18" as="targetPoint" />
          </mxGeometry>
        </mxCell>
        <mxCell id="RaReiFTQw6tafP7txSm7-64" value="Wrong PIN Try Again" style="endArrow=classic;html=1;rounded=0;exitX=0;exitY=0.5;exitDx=0;exitDy=0;entryX=0.5;entryY=0;entryDx=0;entryDy=0;" edge="1" parent="2">
          <mxGeometry width="50" height="50" relative="1" as="geometry">
            <mxPoint x="251.75" y="348.125" as="sourcePoint" />
            <mxPoint x="286.75" y="320" as="targetPoint" />
            <Array as="points">
              <mxPoint x="250.25" y="310" />
            </Array>
          </mxGeometry>
        </mxCell>
        <mxCell id="RaReiFTQw6tafP7txSm7-62" value="Wrong PIN Try Again" style="endArrow=classic;html=1;rounded=0;exitX=0;exitY=0.5;exitDx=0;exitDy=0;entryX=0.5;entryY=0;entryDx=0;entryDy=0;" edge="1" parent="2" source="RaReiFTQw6tafP7txSm7-56" target="RaReiFTQw6tafP7txSm7-56">
          <mxGeometry width="50" height="50" relative="1" as="geometry">
            <mxPoint x="220" y="350" as="sourcePoint" />
            <mxPoint x="270" y="300" as="targetPoint" />
            <Array as="points">
              <mxPoint x="110" y="310" />
            </Array>
          </mxGeometry>
        </mxCell>
      </root>
    </mxGraphModel>
  </diagram>
</mxfile>
